<svg height="512pt" viewBox="0 -76 512 512" width="512pt" xmlns="http://www.w3.org/2000/svg"><path d="m437 360c-41.351562 0-75-33.648438-75-75s33.648438-75 75-75 75 33.648438 75 75-33.648438 75-75 75zm0-120c-24.8125 0-45 20.1875-45 45s20.1875 45 45 45 45-20.1875 45-45-20.1875-45-45-45zm0 0" fill="#293939"/><path d="m425.28125 294.375-76.089844-93.851562c-5.167968-6.476563-4.113281-15.910157 2.34375-21.09375 6.492188-5.203126 15.894532-4.105469 21.097656 2.34375l76.085938 93.851562c5.171875 6.476562 4.117188 15.90625-2.34375 21.09375-6.433594 5.140625-15.875 4.160156-21.09375-2.34375zm0 0" fill="#a8d3d8"/><path d="m344.5 78.601562c-19.5-30.300781-52.5-48.601562-88.5-48.601562-41.101562 0-78.601562 24.300781-95.699219 61.5-6 13.5 5.097657 18.601562 16.800781 25.800781 24.296876 14.398438 51 24.300781 78.898438 29.101563 12.898438 2.398437 26.101562 3.597656 39.601562 3.597656 5.097657 0 9.597657-2.398438 12.296876-6.601562l22.5-33.597657c2.703124-4.199219 6-7.800781 10.800781-11.101562 6-4.800781 7.5-13.5 3.300781-20.097657zm0 0" fill="#3e5959"/><path d="m90 360c-49.628906 0-90-40.371094-90-90s40.371094-90 90-90 90 40.371094 90 90-40.371094 90-90 90zm0-150c-33.089844 0-60 26.910156-60 60s26.910156 60 60 60 60-26.910156 60-60-26.910156-60-60-60zm0 0" fill="#384949"/><path d="m228.078125 270.597656c-.992187-.207031-1.917969-.597656-2.972656-.597656h-120.105469c-8.277344 0-15-6.722656-15-15 0-8.289062-6.710938-15-15-15s-15 6.710938-15 15c0 24.8125 20.1875 45 45 45h103.066406zm0 0" fill="#c6e2e7"/><path d="m308.199219 143.398438-19.796875 30c-3.003906 4.199218-7.5 6.601562-12.601563 6.601562-6.898437 0-13.5 1.199219-19.800781 3.300781-11.699219 3.898438-21.898438 11.398438-30 21l-35.097656-1.203125-.300782 1.203125c-19.5-29.402343-50.699218-49.5-86.097656-53.402343-1.203125-.300782-2.402344-.597657-3.601562-.898438h-25.902344c-41.398438 0-75-33.601562-75-75 0-8.402344 6.597656-15 15-15h121c2.699219 0 5.398438.597656 7.800781 2.101562l48.898438 29.398438c19.5 11.699219 41.101562 20.097656 63.300781 24.597656 12.898438 2.699219 26.101562 3.902344 39.601562 3.902344 5.398438 0 10.496094 2.996094 13.199219 7.800781 2.699219 4.796875 2.398438 10.800781-.601562 15.597657zm0 0" fill="#cc2e43"/><path d="m361 .964844c.003906-.019532.058594-.113282.0625-.136719-4.289062-.441406-8.597656-.828125-12.96875-.828125h-17.09375c-8.289062 0-15 6.710938-15 15s6.710938 15 15 15h17.09375c7.65625 0 15.09375 1.097656 22.273438 2.863281-3.730469-11.910156-9.609376-30.945312-9.367188-31.898437zm0 0" fill="#384949"/><path d="m341.199219 98.699219c-4.800781 3.300781-8.097657 6.898437-10.800781 11.101562l-22.5 33.597657c-2.699219 4.199218-7.199219 6.601562-12.296876 6.601562-13.5 0-26.699218-1.199219-39.601562-3.601562v-116.398438c36 0 69 18.300781 88.5 48.601562 4.199219 6.597657 2.699219 15.296876-3.300781 20.097657zm0 0" fill="#384949"/><path d="m308.199219 143.398438-19.796875 30c-3.003906 4.199218-7.5 6.601562-12.601563 6.601562-6.898437 0-13.5 1.199219-19.800781 3.300781v-67.199219c12.902344 2.699219 26.101562 3.898438 39.601562 3.898438 5.398438 0 10.5 3 13.199219 7.800781 2.699219 4.796875 2.398438 10.800781-.601562 15.597657zm0 0" fill="#ae2538"/><path d="m361 .902344v59.398437c-13.800781 1.199219-27 6.296875-38.402344 14.699219-15.597656 12-43.195312 57.300781-55.199218 75.300781-3.898438.296875-7.796876.898438-11.398438 1.800781-28.199219 5.996094-52.199219 24.597657-65.097656 50.996094l4.199218 7.5c10.5 18.003906 15.898438 38.703125 15.898438 59.402344 0 4.5-.300781 9-.902344 13.199219l-2.097656 16.800781h108c8.402344 0 15-6.601562 15-15 0-7.800781.902344-16.199219 3-25.5 8.699219-37.199219 40.5-68.398438 77.398438-76.800781 8.699218-1.800781 17.101562-2.699219 25.503906-2.699219 26.398437-.300781 44.097656-21.300781 44.097656-45v-1.800781c0-69.300781-52.199219-126-120-132.296875zm0 0" fill="#ec5569"/><path d="m481 133.199219v1.800781c0 23.699219-17.699219 44.699219-44.097656 45-8.402344 0-16.804688.898438-25.503906 2.699219-36.898438 8.402343-68.699219 39.601562-77.398438 76.800781-2.097656 9.300781-3 17.699219-3 25.5 0 8.398438-6.597656 15-15 15h-60v-147.898438c3.601562-.902343 7.5-1.503906 11.398438-1.800781 12.003906-18 39.601562-63.300781 55.199218-75.300781 11.402344-8.402344 24.601563-13.5 38.402344-14.699219v-59.398437c67.800781 6.296875 120 62.996094 120 132.296875zm0 0" fill="#e63950"/></svg>